<svg version="1.1" id="Capa_1" xmlns="http://www.w3.org/2000/svg" x="0" y="0" viewBox="0 0 512 512" xml:space="preserve"><path d="M510.454 501.419L399.563 6.665c-.06-.256-.23-.444-.316-.7a8.416 8.416 0 0 0-.512-1.289c-.145-.273-.247-.546-.418-.853a8.798 8.798 0 0 0-.674-.853 8.2 8.2 0 0 0-.853-.905 7.315 7.315 0 0 0-.683-.597 10.307 10.307 0 0 0-.956-.512 8.779 8.779 0 0 0-1.237-.512c-.23-.068-.393-.23-.631-.29h-.213a8.72 8.72 0 0 0-1.058-.085c-.299.059-.521-.069-.777-.069a5.894 5.894 0 0 0-.657.137 6.744 6.744 0 0 0-.853 0 7.927 7.927 0 0 0-.981-.137H118.629a25.419 25.419 0 0 0-20.087 9.771L64.963 52.437A25.6 25.6 0 0 0 85.05 93.866h23.356L1.884 490.505A17.064 17.064 0 0 0 18.328 512h483.994a8.534 8.534 0 0 0 8.363-7.962 9.334 9.334 0 0 0 0-1.084 8.297 8.297 0 0 0-.231-1.535zM85.05 76.8a8.352 8.352 0 0 1-7.671-4.804 8.37 8.37 0 0 1 .964-9.011l33.587-42.667a8.475 8.475 0 0 1 6.699-3.251h252.587L326.723 73.54a8.483 8.483 0 0 1-6.707 3.26H85.05zM18.328 494.933l107.75-401.067h193.937a25.44 25.44 0 0 0 20.113-9.771l34.739-44.134-109.815 454.972H18.328zm364.374-414.72V438.46l-98.33 49.161 98.33-407.408zm-74.787 414.72l83.174-41.591 77.235 41.591H307.915zm91.853-56.32V85.615l89.984 401.476-89.984-48.478z"/><path d="M292.666 153.6H156.713c-11.803-.033-22.093 8.023-24.892 19.49l-16.777 68.267a25.601 25.601 0 0 0 24.891 31.71H275.89c11.803.033 22.093-8.023 24.892-19.49l16.777-68.267a25.601 25.601 0 0 0-24.893-31.71zm8.286 27.631l-16.768 68.267A8.533 8.533 0 0 1 275.89 256H139.937a8.483 8.483 0 0 1-6.716-3.268l.026-.009a8.458 8.458 0 0 1-1.57-7.296l16.768-68.267a8.534 8.534 0 0 1 8.269-6.494h135.953a8.534 8.534 0 0 1 8.285 10.565z"/></svg>